<mxfile host="app.diagrams.net" agent="Mozilla/5.0 (Windows NT 10.0; Win64; x64) AppleWebKit/537.36 (KHTML, like Gecko) Chrome/131.0.0.0 Safari/537.36" version="24.8.6">
  <diagram name="Side-1" id="OeGM90NfDez6fuQPCgEi">
    <mxGraphModel dx="1816" dy="538" grid="1" gridSize="5" guides="1" tooltips="1" connect="1" arrows="1" fold="1" page="1" pageScale="1" pageWidth="827" pageHeight="1169" math="0" shadow="0">
      <root>
        <mxCell id="0" />
        <mxCell id="1" parent="0" />
        <mxCell id="rPwAlsw_rRxMgnSRaKCH-1" value="&lt;font style=&quot;font-size: 16px;&quot;&gt;IV_SAVER&lt;/font&gt;" style="swimlane;whiteSpace=wrap;html=1;startSize=30;" parent="1" vertex="1">
          <mxGeometry x="260" y="120" width="300" height="310" as="geometry" />
        </mxCell>
        <mxCell id="rPwAlsw_rRxMgnSRaKCH-7" value="ADC_DATA_IN" style="text;html=1;align=center;verticalAlign=middle;whiteSpace=wrap;rounded=0;" parent="rPwAlsw_rRxMgnSRaKCH-1" vertex="1">
          <mxGeometry y="60" width="100" height="30" as="geometry" />
        </mxCell>
        <mxCell id="rPwAlsw_rRxMgnSRaKCH-8" value="ADC_DATA_RDY_IN" style="text;html=1;align=center;verticalAlign=middle;whiteSpace=wrap;rounded=0;" parent="rPwAlsw_rRxMgnSRaKCH-1" vertex="1">
          <mxGeometry y="30" width="135" height="30" as="geometry" />
        </mxCell>
        <mxCell id="rPwAlsw_rRxMgnSRaKCH-4" value="o_DATA_IXMUX" style="text;html=1;align=center;verticalAlign=middle;whiteSpace=wrap;rounded=0;rotation=270;" parent="rPwAlsw_rRxMgnSRaKCH-1" vertex="1">
          <mxGeometry x="190" y="242" width="105" height="30" as="geometry" />
        </mxCell>
        <mxCell id="rPwAlsw_rRxMgnSRaKCH-3" value="i_CLK_IXMUX" style="text;html=1;align=center;verticalAlign=middle;whiteSpace=wrap;rounded=0;rotation=270;" parent="rPwAlsw_rRxMgnSRaKCH-1" vertex="1">
          <mxGeometry x="165" y="247" width="95" height="30" as="geometry" />
        </mxCell>
        <mxCell id="rPwAlsw_rRxMgnSRaKCH-6" value="ADC_DnB" style="text;html=1;align=center;verticalAlign=middle;whiteSpace=wrap;rounded=0;rotation=270;" parent="rPwAlsw_rRxMgnSRaKCH-1" vertex="1">
          <mxGeometry x="-12.5" y="255" width="80" height="30" as="geometry" />
        </mxCell>
        <mxCell id="rPwAlsw_rRxMgnSRaKCH-13" value="i_RESET" style="text;html=1;align=center;verticalAlign=middle;whiteSpace=wrap;rounded=0;rotation=270;" parent="rPwAlsw_rRxMgnSRaKCH-1" vertex="1">
          <mxGeometry x="27.5" y="260" width="70" height="30" as="geometry" />
        </mxCell>
        <mxCell id="rPwAlsw_rRxMgnSRaKCH-5" value="DATA_FROM_MEM_DIST_IN" style="text;html=1;align=center;verticalAlign=middle;whiteSpace=wrap;rounded=0;" parent="rPwAlsw_rRxMgnSRaKCH-1" vertex="1">
          <mxGeometry x="120" y="150" width="180" height="30" as="geometry" />
        </mxCell>
        <mxCell id="rPwAlsw_rRxMgnSRaKCH-9" value="DATA_TO_MEM_DIST_OUT" style="text;html=1;align=center;verticalAlign=middle;whiteSpace=wrap;rounded=0;" parent="rPwAlsw_rRxMgnSRaKCH-1" vertex="1">
          <mxGeometry x="125" y="90" width="175" height="30" as="geometry" />
        </mxCell>
        <mxCell id="rPwAlsw_rRxMgnSRaKCH-10" value="ADDR_TO_MEM_DIST_OUT" style="text;html=1;align=center;verticalAlign=middle;whiteSpace=wrap;rounded=0;" parent="rPwAlsw_rRxMgnSRaKCH-1" vertex="1">
          <mxGeometry x="120" y="120" width="180" height="30" as="geometry" />
        </mxCell>
        <mxCell id="rPwAlsw_rRxMgnSRaKCH-11" value="RnW_TO_MEM_DIST_OUT" style="text;html=1;align=center;verticalAlign=middle;whiteSpace=wrap;rounded=0;" parent="rPwAlsw_rRxMgnSRaKCH-1" vertex="1">
          <mxGeometry x="130" y="30" width="170" height="30" as="geometry" />
        </mxCell>
        <mxCell id="rPwAlsw_rRxMgnSRaKCH-12" value="CLK_TO_MEM_DIST_OUT" style="text;html=1;align=center;verticalAlign=middle;whiteSpace=wrap;rounded=0;" parent="rPwAlsw_rRxMgnSRaKCH-1" vertex="1">
          <mxGeometry x="135" y="60" width="165" height="30" as="geometry" />
        </mxCell>
        <mxCell id="rPwAlsw_rRxMgnSRaKCH-33" value="&lt;font style=&quot;font-size: 16px;&quot;&gt;&amp;nbsp; Memory Distribution&lt;/font&gt;" style="swimlane;whiteSpace=wrap;html=1;startSize=30;align=left;" parent="1" vertex="1">
          <mxGeometry x="660" y="120" width="180" height="200" as="geometry" />
        </mxCell>
        <mxCell id="rPwAlsw_rRxMgnSRaKCH-35" value="i_DATA" style="text;html=1;align=center;verticalAlign=middle;whiteSpace=wrap;rounded=0;" parent="rPwAlsw_rRxMgnSRaKCH-33" vertex="1">
          <mxGeometry y="90" width="60" height="30" as="geometry" />
        </mxCell>
        <mxCell id="rPwAlsw_rRxMgnSRaKCH-36" value="i_ADDR" style="text;html=1;align=center;verticalAlign=middle;whiteSpace=wrap;rounded=0;" parent="rPwAlsw_rRxMgnSRaKCH-33" vertex="1">
          <mxGeometry y="120" width="60" height="30" as="geometry" />
        </mxCell>
        <mxCell id="rPwAlsw_rRxMgnSRaKCH-38" value="i_SET" style="text;html=1;align=center;verticalAlign=middle;whiteSpace=wrap;rounded=0;" parent="rPwAlsw_rRxMgnSRaKCH-33" vertex="1">
          <mxGeometry y="60" width="50" height="30" as="geometry" />
        </mxCell>
        <mxCell id="rPwAlsw_rRxMgnSRaKCH-39" value="i_RnW" style="text;html=1;align=center;verticalAlign=middle;whiteSpace=wrap;rounded=0;" parent="rPwAlsw_rRxMgnSRaKCH-33" vertex="1">
          <mxGeometry y="30" width="55" height="30" as="geometry" />
        </mxCell>
        <mxCell id="rPwAlsw_rRxMgnSRaKCH-40" value="o_DATA" style="text;html=1;align=center;verticalAlign=middle;whiteSpace=wrap;rounded=0;" parent="rPwAlsw_rRxMgnSRaKCH-33" vertex="1">
          <mxGeometry y="150" width="60" height="30" as="geometry" />
        </mxCell>
        <mxCell id="rPwAlsw_rRxMgnSRaKCH-41" style="edgeStyle=orthogonalEdgeStyle;rounded=0;orthogonalLoop=1;jettySize=auto;html=1;" parent="1" source="rPwAlsw_rRxMgnSRaKCH-11" target="rPwAlsw_rRxMgnSRaKCH-39" edge="1">
          <mxGeometry relative="1" as="geometry" />
        </mxCell>
        <mxCell id="rPwAlsw_rRxMgnSRaKCH-42" style="edgeStyle=orthogonalEdgeStyle;rounded=0;orthogonalLoop=1;jettySize=auto;html=1;" parent="1" source="rPwAlsw_rRxMgnSRaKCH-12" target="rPwAlsw_rRxMgnSRaKCH-38" edge="1">
          <mxGeometry relative="1" as="geometry" />
        </mxCell>
        <mxCell id="rPwAlsw_rRxMgnSRaKCH-43" style="edgeStyle=orthogonalEdgeStyle;rounded=0;orthogonalLoop=1;jettySize=auto;html=1;" parent="1" source="rPwAlsw_rRxMgnSRaKCH-9" target="rPwAlsw_rRxMgnSRaKCH-35" edge="1">
          <mxGeometry relative="1" as="geometry" />
        </mxCell>
        <mxCell id="rPwAlsw_rRxMgnSRaKCH-44" style="edgeStyle=orthogonalEdgeStyle;rounded=0;orthogonalLoop=1;jettySize=auto;html=1;" parent="1" source="rPwAlsw_rRxMgnSRaKCH-10" target="rPwAlsw_rRxMgnSRaKCH-36" edge="1">
          <mxGeometry relative="1" as="geometry" />
        </mxCell>
        <mxCell id="rPwAlsw_rRxMgnSRaKCH-45" style="edgeStyle=orthogonalEdgeStyle;rounded=0;orthogonalLoop=1;jettySize=auto;html=1;" parent="1" source="rPwAlsw_rRxMgnSRaKCH-40" target="rPwAlsw_rRxMgnSRaKCH-5" edge="1">
          <mxGeometry relative="1" as="geometry" />
        </mxCell>
        <mxCell id="rPwAlsw_rRxMgnSRaKCH-46" value="" style="endArrow=none;html=1;rounded=0;" parent="1" edge="1">
          <mxGeometry width="50" height="50" relative="1" as="geometry">
            <mxPoint x="605" y="290" as="sourcePoint" />
            <mxPoint x="615" y="280" as="targetPoint" />
          </mxGeometry>
        </mxCell>
        <mxCell id="rPwAlsw_rRxMgnSRaKCH-47" value="" style="endArrow=none;html=1;rounded=0;" parent="1" edge="1">
          <mxGeometry width="50" height="50" relative="1" as="geometry">
            <mxPoint x="605" y="260" as="sourcePoint" />
            <mxPoint x="615" y="250" as="targetPoint" />
          </mxGeometry>
        </mxCell>
        <mxCell id="rPwAlsw_rRxMgnSRaKCH-48" value="" style="endArrow=none;html=1;rounded=0;" parent="1" edge="1">
          <mxGeometry width="50" height="50" relative="1" as="geometry">
            <mxPoint x="605" y="230" as="sourcePoint" />
            <mxPoint x="615" y="220" as="targetPoint" />
          </mxGeometry>
        </mxCell>
        <mxCell id="rPwAlsw_rRxMgnSRaKCH-49" value="16" style="text;html=1;align=center;verticalAlign=middle;whiteSpace=wrap;rounded=0;" parent="1" vertex="1">
          <mxGeometry x="595" y="210" width="15" height="15" as="geometry" />
        </mxCell>
        <mxCell id="rPwAlsw_rRxMgnSRaKCH-50" value="16" style="text;html=1;align=center;verticalAlign=middle;whiteSpace=wrap;rounded=0;" parent="1" vertex="1">
          <mxGeometry x="595" y="270" width="15" height="15" as="geometry" />
        </mxCell>
        <mxCell id="rPwAlsw_rRxMgnSRaKCH-51" value="16" style="text;html=1;align=center;verticalAlign=middle;whiteSpace=wrap;rounded=0;" parent="1" vertex="1">
          <mxGeometry x="595" y="240" width="15" height="15" as="geometry" />
        </mxCell>
        <mxCell id="rPwAlsw_rRxMgnSRaKCH-52" value="&amp;nbsp; IXMUX" style="swimlane;whiteSpace=wrap;html=1;startSize=30;align=left;" parent="1" vertex="1">
          <mxGeometry x="660" y="410" width="180" height="120" as="geometry" />
        </mxCell>
        <mxCell id="rPwAlsw_rRxMgnSRaKCH-55" value="i_DATA_IVSA" style="text;html=1;align=center;verticalAlign=middle;whiteSpace=wrap;rounded=0;" parent="rPwAlsw_rRxMgnSRaKCH-52" vertex="1">
          <mxGeometry y="30" width="95" height="30" as="geometry" />
        </mxCell>
        <mxCell id="rPwAlsw_rRxMgnSRaKCH-54" value="o_CLK_IVSA" style="text;html=1;align=center;verticalAlign=middle;whiteSpace=wrap;rounded=0;" parent="rPwAlsw_rRxMgnSRaKCH-52" vertex="1">
          <mxGeometry y="60" width="90" height="30" as="geometry" />
        </mxCell>
        <mxCell id="rPwAlsw_rRxMgnSRaKCH-56" style="edgeStyle=orthogonalEdgeStyle;rounded=0;orthogonalLoop=1;jettySize=auto;html=1;startArrow=classic;startFill=1;endArrow=none;endFill=0;" parent="1" source="rPwAlsw_rRxMgnSRaKCH-55" target="rPwAlsw_rRxMgnSRaKCH-4" edge="1">
          <mxGeometry relative="1" as="geometry" />
        </mxCell>
        <mxCell id="rPwAlsw_rRxMgnSRaKCH-57" style="edgeStyle=orthogonalEdgeStyle;rounded=0;orthogonalLoop=1;jettySize=auto;html=1;" parent="1" source="rPwAlsw_rRxMgnSRaKCH-54" target="rPwAlsw_rRxMgnSRaKCH-3" edge="1">
          <mxGeometry relative="1" as="geometry" />
        </mxCell>
        <mxCell id="rPwAlsw_rRxMgnSRaKCH-58" value="" style="endArrow=none;html=1;rounded=0;" parent="1" edge="1">
          <mxGeometry width="50" height="50" relative="1" as="geometry">
            <mxPoint x="605" y="460" as="sourcePoint" />
            <mxPoint x="615" y="450" as="targetPoint" />
          </mxGeometry>
        </mxCell>
        <mxCell id="rPwAlsw_rRxMgnSRaKCH-59" value="16" style="text;html=1;align=center;verticalAlign=middle;whiteSpace=wrap;rounded=0;" parent="1" vertex="1">
          <mxGeometry x="595" y="440" width="15" height="15" as="geometry" />
        </mxCell>
        <mxCell id="rPwAlsw_rRxMgnSRaKCH-60" value="&amp;nbsp; logic_reset" style="swimlane;whiteSpace=wrap;html=1;startSize=30;align=left;" parent="1" vertex="1">
          <mxGeometry x="660" y="560" width="180" height="80" as="geometry" />
        </mxCell>
        <mxCell id="rPwAlsw_rRxMgnSRaKCH-61" value="RESET" style="text;html=1;align=center;verticalAlign=middle;whiteSpace=wrap;rounded=0;" parent="rPwAlsw_rRxMgnSRaKCH-60" vertex="1">
          <mxGeometry y="30" width="60" height="30" as="geometry" />
        </mxCell>
        <mxCell id="rPwAlsw_rRxMgnSRaKCH-63" style="edgeStyle=orthogonalEdgeStyle;rounded=0;orthogonalLoop=1;jettySize=auto;html=1;" parent="1" source="rPwAlsw_rRxMgnSRaKCH-61" target="rPwAlsw_rRxMgnSRaKCH-13" edge="1">
          <mxGeometry relative="1" as="geometry" />
        </mxCell>
        <mxCell id="rPwAlsw_rRxMgnSRaKCH-66" value="&lt;font style=&quot;font-size: 16px;&quot;&gt;PARALLEL_SERIES_CONVERTER&amp;nbsp;&amp;nbsp;&lt;/font&gt;" style="swimlane;whiteSpace=wrap;html=1;startSize=30;align=right;" parent="1" vertex="1">
          <mxGeometry x="-120" y="120" width="280" height="140" as="geometry" />
        </mxCell>
        <mxCell id="rPwAlsw_rRxMgnSRaKCH-67" value="o_DATA" style="text;html=1;align=center;verticalAlign=middle;whiteSpace=wrap;rounded=0;" parent="rPwAlsw_rRxMgnSRaKCH-66" vertex="1">
          <mxGeometry x="215" y="60" width="65" height="30" as="geometry" />
        </mxCell>
        <mxCell id="rPwAlsw_rRxMgnSRaKCH-68" value="o_SET" style="text;html=1;align=center;verticalAlign=middle;whiteSpace=wrap;rounded=0;" parent="rPwAlsw_rRxMgnSRaKCH-66" vertex="1">
          <mxGeometry x="220" y="30" width="60" height="30" as="geometry" />
        </mxCell>
        <mxCell id="rPwAlsw_rRxMgnSRaKCH-70" style="edgeStyle=orthogonalEdgeStyle;rounded=0;orthogonalLoop=1;jettySize=auto;html=1;" parent="1" source="rPwAlsw_rRxMgnSRaKCH-68" target="rPwAlsw_rRxMgnSRaKCH-8" edge="1">
          <mxGeometry relative="1" as="geometry" />
        </mxCell>
        <mxCell id="rPwAlsw_rRxMgnSRaKCH-71" style="edgeStyle=orthogonalEdgeStyle;rounded=0;orthogonalLoop=1;jettySize=auto;html=1;" parent="1" source="rPwAlsw_rRxMgnSRaKCH-67" target="rPwAlsw_rRxMgnSRaKCH-7" edge="1">
          <mxGeometry relative="1" as="geometry" />
        </mxCell>
        <mxCell id="rPwAlsw_rRxMgnSRaKCH-72" value="" style="endArrow=none;html=1;rounded=0;" parent="1" edge="1">
          <mxGeometry width="50" height="50" relative="1" as="geometry">
            <mxPoint x="195" y="200" as="sourcePoint" />
            <mxPoint x="205" y="190" as="targetPoint" />
          </mxGeometry>
        </mxCell>
        <mxCell id="rPwAlsw_rRxMgnSRaKCH-73" value="16" style="text;html=1;align=center;verticalAlign=middle;whiteSpace=wrap;rounded=0;" parent="1" vertex="1">
          <mxGeometry x="185" y="180" width="15" height="15" as="geometry" />
        </mxCell>
        <mxCell id="rPwAlsw_rRxMgnSRaKCH-74" value="&lt;span style=&quot;font-size: 16px;&quot;&gt;adc_resampler&amp;nbsp;&amp;nbsp;&lt;/span&gt;" style="swimlane;whiteSpace=wrap;html=1;startSize=28;align=right;" parent="1" vertex="1">
          <mxGeometry x="-120" y="410" width="280" height="92.5" as="geometry" />
        </mxCell>
        <mxCell id="rPwAlsw_rRxMgnSRaKCH-77" value="o_resampler_DnBusy" style="text;html=1;align=center;verticalAlign=middle;whiteSpace=wrap;rounded=0;rotation=0;" parent="rPwAlsw_rRxMgnSRaKCH-74" vertex="1">
          <mxGeometry x="145" y="30" width="135" height="30" as="geometry" />
        </mxCell>
        <mxCell id="rPwAlsw_rRxMgnSRaKCH-78" style="edgeStyle=orthogonalEdgeStyle;rounded=0;orthogonalLoop=1;jettySize=auto;html=1;" parent="1" source="rPwAlsw_rRxMgnSRaKCH-77" target="rPwAlsw_rRxMgnSRaKCH-6" edge="1">
          <mxGeometry relative="1" as="geometry" />
        </mxCell>
      </root>
    </mxGraphModel>
  </diagram>
</mxfile>
